<svg
  xmlns="http://www.w3.org/2000/svg"
  viewBox="0 0 64 64"
  role="img"
  aria-label="GraphMind favicon variation 2"
>
  <defs>
    <linearGradient id="bg2" x1="0%" y1="0%" x2="100%" y2="100%">
      <stop offset="0%" stop-color="#134e4a" />
      <stop offset="100%" stop-color="#1e40af" />
    </linearGradient>
  </defs>

  <rect x="4" y="4" width="56" height="56" rx="14" fill="url(#bg2)" />

  <!-- Stacked papers -->
  <rect x="13" y="20" width="26" height="30" rx="3" fill="#dbeafe" opacity="0.55" />
  <rect x="17" y="16" width="26" height="30" rx="3" fill="#f8fafc" opacity="0.9" />
  <rect x="21" y="12" width="26" height="30" rx="3" fill="#ffffff" />

  <!-- Text lines -->
  <rect x="25" y="18" width="12" height="2.5" rx="1.2" fill="#94a3b8" />
  <rect x="25" y="23" width="18" height="2.5" rx="1.2" fill="#94a3b8" />
  <rect x="25" y="28" width="15" height="2.5" rx="1.2" fill="#94a3b8" />

  <!-- Relation graph -->
  <path d="M36 36L49 33" stroke="#5eead4" stroke-linecap="round" stroke-width="3" />
  <path d="M36 36L47 46" stroke="#93c5fd" stroke-linecap="round" stroke-width="3" />
  <path d="M49 33L47 46" stroke="#a5f3fc" stroke-linecap="round" stroke-width="2.5" />
  <circle cx="36" cy="36" r="3.2" fill="#e2e8f0" />
  <circle cx="49" cy="33" r="4" fill="#e2e8f0" />
  <circle cx="47" cy="46" r="4" fill="#e2e8f0" />
</svg>
